<?xml version="1.0" standalone="no"?>
<!DOCTYPE svg PUBLIC "-//W3C//DTD SVG 20010904//EN"
 "http://www.w3.org/TR/2001/REC-SVG-20010904/DTD/svg10.dtd">
<svg version="1.0" xmlns="http://www.w3.org/2000/svg"
 width="300.000000pt" height="136.000000pt" viewBox="0 0 300.000000 136.000000"
 preserveAspectRatio="xMidYMid meet">

<g transform="translate(0.000000,136.000000) scale(0.100000,-0.100000)"
fill="#000000" stroke="none">
<path d="M635 1038 c-3 -13 -23 -113 -45 -223 -63 -314 -72 -335 -147 -335
-42 0 -73 30 -73 71 l0 32 -46 -7 c-26 -3 -55 -6 -65 -6 -16 0 -19 -8 -19 -45
0 -107 73 -165 204 -165 110 1 175 47 216 157 12 31 41 156 66 278 25 121 47
230 51 243 5 21 3 22 -66 22 -65 0 -71 -2 -76 -22z"/>
<path d="M915 1048 c-6 -19 -135 -658 -135 -669 0 -6 30 -9 72 -7 l72 3 30
148 29 147 168 0 167 0 11 50 c6 28 11 53 11 55 0 3 -74 5 -165 5 -185 0 -174
-6 -155 80 22 101 -2 89 192 92 l173 3 11 53 12 52 -244 0 c-187 0 -246 -3
-249 -12z"/>
<path d="M1505 1038 c-13 -56 -135 -652 -135 -660 0 -4 29 -8 64 -8 l63 0 42
218 c71 370 64 365 76 57 l10 -270 70 -3 70 -2 114 265 c63 146 115 264 116
263 2 -2 -21 -121 -50 -266 l-52 -263 66 3 66 3 57 325 c31 179 57 333 57 343
1 16 -8 17 -100 15 l-100 -3 -102 -230 -102 -230 -8 170 c-4 94 -10 198 -13
233 l-6 62 -99 0 c-94 0 -99 -1 -104 -22z"/>
<path d="M2545 1038 c-3 -13 -25 -123 -50 -246 -25 -123 -52 -239 -60 -258
-34 -81 -155 -67 -155 17 l0 32 -46 -7 c-26 -3 -55 -6 -65 -6 -16 0 -19 -8
-19 -45 0 -107 73 -165 204 -165 110 1 175 47 216 157 12 31 41 156 66 278 25
121 47 230 51 243 5 21 3 22 -66 22 -65 0 -71 -2 -76 -22z"/>
</g>
</svg>
